<svg x="0" y="0" viewBox="0 0 100 100" xmlns="http://www.w3.org/2000/svg" xmlns:xlink="http://www.w3.org/1999/xlink">
  <symbol id="snowflake">
    <path fill="#000000" d="M11.68,4.47H8.85L10.27,2A1.35,1.35,0,1,0,7.93.67L6.51,3.12,5.1.67A1.35,1.35,0,0,0,3.26.18,1.35,1.35,0,0,0,2.76,2L4.18,4.47H1.35a1.35,1.35,0,1,0,0,2.7H4.18L2.76,9.62a1.35,1.35,0,0,0,.49,1.84A1.39,1.39,0,0,0,5.1,11L6.51,8.52,7.93,11a1.35,1.35,0,1,0,2.34-1.35L8.85,7.17h2.83a1.35,1.35,0,1,0,0-2.7Z"></path>
  </symbol>
  <symbol id="lightning">
    <polygon fill="#000000" points="19.6 23.42 12.74 20.39 15.55 5 5 24.49 12.08 27.51 7.49 45 19.6 23.42"></polygon>
  </symbol>
  <symbol id="cloud">
    <path stroke="black" stroke-width="3" d="M55.7,5A23.94,23.94,0,0,0,34.37,18.05a9.9,9.9,0,0,0-12.78,5.56,15,15,0,0,0-1.71-.1A14.81,14.81,0,0,0,9.2,28,14.63,14.63,0,0,0,5,38.17v.21A14.83,14.83,0,0,0,19.88,53.06H75.59a14.3,14.3,0,0,0,3.67-28.14A23.93,23.93,0,0,0,55.7,5Z"></path>
  </symbol>

  <defs>
    <mask id="lightning_37_51_1_1_4">
    <rect x="0" y="0" width="100" height="100" fill="white"></rect>
    <use xlink:href="#lightning" fill="black" stroke="black" stroke-linejoin="round" stroke-width="8" x="0" y="0" width="100" height="100" transform="translate(37,51) scale(1,1)"></use>
  </mask>
  </defs>
  <symbol id="s14">
    <g mask="url(#lightning_37_51_1_1_4)">
      <use xlink:href="#cloud" fill="#ffffff" x="0" y="0" width="100" height="100" transform="translate(3,18) scale(1,1)"></use>
    </g>
    <use xlink:href="#lightning"  x="0" y="0" width="100" height="100" transform="translate(37,51) scale(1,1)"></use>
    <use xlink:href="#snowflake"  x="0" y="0" width="100" height="100" transform="translate(26,79) scale(1,1)"></use>
    <use xlink:href="#snowflake"  x="0" y="0" width="100" height="100" transform="translate(52,88) scale(1,1)"></use>
    <use xlink:href="#snowflake"  x="0" y="0" width="100" height="100" transform="translate(66,79) scale(1,1)"></use>
  </symbol>
  <use xlink:href="#s14" x="0" y="0" width="100" height="100"></use>
</svg>